<?xml version="1.0" standalone="no"?>
<!DOCTYPE svg PUBLIC "-//W3C//DTD SVG 1.1//EN" "http://www.w3.org/Graphics/SVG/1.1/DTD/svg11.dtd">
<svg t="1711083381826" class="icon" viewBox="0 0 1024 1024" version="1.1" xmlns="http://www.w3.org/2000/svg" p-id="4300" width="200" height="200" xmlns:xlink="http://www.w3.org/1999/xlink">
    <path d="M653.312 176.128l77.312-77.312c11.264-11.776 10.24-30.208-1.536-41.472-11.264-10.752-28.672-10.752-39.936 0l-118.784 118.784H453.632L334.848 56.832c-11.264-11.776-29.696-12.288-41.472-1.536s-12.288 30.208-1.536 41.984l1.536 1.536 77.312 77.312H218.624c-84.992 0-154.112 69.12-154.112 154.112v378.368c0 84.992 61.952 154.112 146.944 154.112h22.528c0 27.648 22.528 49.664 49.664 49.664 27.648 0 49.664-22.528 49.664-49.664h356.864c0 27.648 22.528 49.664 49.664 49.664 27.648 0 49.664-22.528 49.664-49.664h15.36c84.992 0 154.112-69.12 154.112-154.112V330.24c0-84.992-61.952-154.112-146.944-154.112h-158.72z m208.384 540.16c0 31.744-25.6 57.344-57.344 57.344H219.648c-31.744 0-57.344-25.6-57.344-57.344v-394.24c0-31.744 25.6-57.344 57.344-57.344h584.704c31.744 0 57.344 25.6 57.344 57.344v394.24z" p-id="4301" fill="#1296db"></path>
    <path d="M406.528 395.264l-187.904 37.376 14.336 70.656 187.904-36.864-14.336-71.168zM603.136 466.432l187.904 36.864 14.336-70.656-187.904-37.376-14.336 71.168zM563.712 637.952c-18.432 0-38.912-25.088-51.2-52.224v1.024-1.024c-12.288 26.624-32.768 52.224-51.2 52.224s-40.448-29.184-40.448-29.184l-28.672 18.944c14.336 27.136 42.496 44.544 73.216 46.08 17.92-2.56 34.816-11.776 47.104-25.088 12.288 13.312 29.184 22.016 47.104 25.088 30.72-1.024 58.88-18.432 73.216-46.08l-28.672-18.944c-0.512 0-22.016 29.184-40.448 29.184" p-id="4302" fill="#1296db"></path></svg>